<svg xmlns="http://www.w3.org/2000/svg" xmlns:xlink="http://www.w3.org/1999/xlink" width="127" zoomAndPan="magnify" viewBox="0 0 95.25 129.749996" height="173" preserveAspectRatio="xMidYMid meet" version="1.0"><defs><clipPath id="d5e590fe64"><path d="M 0 0.382812 L 94.503906 0.382812 L 94.503906 116 L 0 116 Z M 0 0.382812 " clip-rule="nonzero"/></clipPath><clipPath id="75bb5651ec"><path d="M 0 90 L 94.503906 90 L 94.503906 116 L 0 116 Z M 0 90 " clip-rule="nonzero"/></clipPath></defs><g clip-path="url(#d5e590fe64)"><path fill="#fc6067" d="M 85.953125 0.535156 L 13.257812 0.535156 C 12.414062 0.535156 11.582031 0.617188 10.753906 0.785156 C 9.929688 0.949219 9.128906 1.191406 8.347656 1.515625 C 7.570312 1.835938 6.832031 2.230469 6.132812 2.699219 C 5.433594 3.167969 4.785156 3.699219 4.1875 4.292969 C 3.59375 4.890625 3.0625 5.535156 2.59375 6.238281 C 2.125 6.9375 1.730469 7.675781 1.40625 8.453125 C 1.085938 9.230469 0.839844 10.03125 0.675781 10.855469 C 0.511719 11.679688 0.429688 12.515625 0.425781 13.355469 L 0.425781 103.109375 C 0.429688 103.953125 0.511719 104.785156 0.675781 105.609375 C 0.839844 106.4375 1.085938 107.238281 1.40625 108.015625 C 1.730469 108.792969 2.125 109.53125 2.59375 110.230469 C 3.0625 110.929688 3.59375 111.578125 4.1875 112.171875 C 4.785156 112.765625 5.433594 113.296875 6.132812 113.765625 C 6.832031 114.234375 7.570312 114.628906 8.347656 114.953125 C 9.128906 115.273438 9.929688 115.519531 10.753906 115.683594 C 11.582031 115.847656 12.414062 115.929688 13.257812 115.933594 L 85.953125 115.933594 C 86.515625 115.929688 87.070312 115.875 87.621094 115.765625 C 88.171875 115.65625 88.707031 115.492188 89.226562 115.277344 C 89.742188 115.0625 90.234375 114.800781 90.703125 114.488281 C 91.167969 114.175781 91.601562 113.820312 92 113.425781 C 92.394531 113.027344 92.75 112.597656 93.0625 112.128906 C 93.375 111.664062 93.636719 111.171875 93.851562 110.652344 C 94.066406 110.136719 94.230469 109.601562 94.339844 109.050781 C 94.449219 108.5 94.503906 107.945312 94.503906 107.382812 L 94.503906 9.082031 C 94.503906 8.519531 94.449219 7.964844 94.339844 7.414062 C 94.230469 6.867188 94.066406 6.332031 93.851562 5.8125 C 93.636719 5.292969 93.375 4.800781 93.0625 4.335938 C 92.75 3.871094 92.394531 3.4375 92 3.039062 C 91.601562 2.644531 91.167969 2.289062 90.703125 1.976562 C 90.234375 1.667969 89.742188 1.402344 89.226562 1.1875 C 88.707031 0.972656 88.171875 0.808594 87.621094 0.699219 C 87.070312 0.589844 86.515625 0.535156 85.953125 0.535156 Z M 85.953125 0.535156 " fill-opacity="1" fill-rule="nonzero"/></g><g clip-path="url(#75bb5651ec)"><path fill="#fb4b5b" d="M 94.503906 90.289062 L 13.703125 90.289062 C 12.917969 90.277344 12.136719 90.335938 11.359375 90.464844 C 10.585938 90.59375 9.828125 90.789062 9.085938 91.054688 C 8.347656 91.320312 7.636719 91.648438 6.953125 92.042969 C 6.273438 92.433594 5.632812 92.882812 5.035156 93.390625 C 4.433594 93.898438 3.882812 94.457031 3.382812 95.0625 C 2.882812 95.667969 2.441406 96.3125 2.058594 97 C 1.671875 97.6875 1.351562 98.398438 1.097656 99.144531 C 0.84375 99.886719 0.65625 100.644531 0.535156 101.421875 C 0.476562 101.875 0.441406 102.328125 0.429688 102.78125 C 0.417969 103.238281 0.433594 103.691406 0.46875 104.144531 C 0.507812 104.597656 0.566406 105.050781 0.652344 105.496094 C 0.738281 105.945312 0.847656 106.386719 0.980469 106.820312 C 1.113281 107.257812 1.265625 107.683594 1.445312 108.101562 C 1.621094 108.523438 1.820312 108.929688 2.042969 109.328125 C 2.261719 109.726562 2.503906 110.109375 2.765625 110.484375 C 3.03125 110.855469 3.308594 111.210938 3.609375 111.554688 C 3.910156 111.898438 4.226562 112.222656 4.5625 112.53125 C 4.898438 112.839844 5.246094 113.128906 5.613281 113.402344 C 5.980469 113.671875 6.359375 113.921875 6.75 114.15625 C 7.144531 114.386719 7.546875 114.59375 7.960938 114.785156 C 8.375 114.972656 8.800781 115.136719 9.230469 115.28125 C 9.664062 115.421875 10.101562 115.542969 10.546875 115.640625 C 10.992188 115.738281 11.441406 115.808594 11.894531 115.859375 C 12.347656 115.90625 12.800781 115.929688 13.257812 115.933594 L 85.953125 115.933594 C 86.515625 115.933594 87.070312 115.878906 87.621094 115.765625 C 88.171875 115.65625 88.707031 115.496094 89.226562 115.28125 C 89.746094 115.066406 90.238281 114.804688 90.703125 114.492188 C 91.171875 114.179688 91.605469 113.824219 92 113.429688 C 92.398438 113.03125 92.753906 112.597656 93.066406 112.132812 C 93.375 111.667969 93.640625 111.171875 93.855469 110.65625 C 94.070312 110.136719 94.230469 109.601562 94.339844 109.050781 C 94.449219 108.5 94.503906 107.945312 94.503906 107.382812 Z M 94.503906 90.289062 " fill-opacity="1" fill-rule="nonzero"/></g><path fill="#e7eaef" d="M 4.703125 103.109375 C 4.703125 103.671875 4.761719 104.226562 4.871094 104.777344 C 4.980469 105.328125 5.140625 105.859375 5.355469 106.378906 C 5.574219 106.898438 5.835938 107.390625 6.148438 107.855469 C 6.460938 108.324219 6.816406 108.753906 7.210938 109.152344 C 7.609375 109.546875 8.039062 109.902344 8.507812 110.214844 C 8.972656 110.527344 9.464844 110.789062 9.984375 111.003906 C 10.503906 111.21875 11.039062 111.382812 11.589844 111.492188 C 12.140625 111.601562 12.695312 111.65625 13.257812 111.65625 L 85.953125 111.65625 C 86.234375 111.65625 86.511719 111.628906 86.789062 111.574219 C 87.0625 111.519531 87.328125 111.4375 87.589844 111.332031 C 87.847656 111.222656 88.09375 111.09375 88.328125 110.9375 C 88.5625 110.78125 88.777344 110.601562 88.976562 110.40625 C 89.175781 110.207031 89.351562 109.992188 89.507812 109.757812 C 89.664062 109.523438 89.796875 109.277344 89.902344 109.019531 C 90.011719 108.757812 90.089844 108.492188 90.148438 108.21875 C 90.203125 107.941406 90.230469 107.664062 90.230469 107.382812 L 90.230469 94.5625 L 13.257812 94.5625 C 12.695312 94.5625 12.140625 94.617188 11.589844 94.726562 C 11.039062 94.835938 10.503906 95 9.984375 95.214844 C 9.464844 95.429688 8.972656 95.695312 8.507812 96.003906 C 8.039062 96.316406 7.609375 96.671875 7.210938 97.066406 C 6.816406 97.464844 6.460938 97.898438 6.148438 98.363281 C 5.835938 98.828125 5.574219 99.320312 5.355469 99.839844 C 5.140625 100.359375 4.980469 100.894531 4.871094 101.441406 C 4.761719 101.992188 4.703125 102.546875 4.703125 103.109375 Z M 4.703125 103.109375 " fill-opacity="1" fill-rule="nonzero"/><path fill="#fcb860" d="M 38.914062 100.972656 L 21.808594 100.972656 C 21.527344 100.972656 21.253906 101.027344 20.992188 101.136719 C 20.730469 101.242188 20.496094 101.398438 20.296875 101.597656 C 20.097656 101.800781 19.941406 102.03125 19.832031 102.292969 C 19.726562 102.554688 19.671875 102.828125 19.671875 103.109375 L 19.671875 126.617188 C 19.671875 127.046875 19.789062 127.445312 20.03125 127.804688 C 20.269531 128.164062 20.589844 128.425781 20.992188 128.589844 C 21.390625 128.757812 21.800781 128.796875 22.226562 128.710938 C 22.648438 128.628906 23.015625 128.433594 23.320312 128.128906 L 30.363281 121.089844 L 37.402344 128.128906 C 37.707031 128.433594 38.074219 128.628906 38.496094 128.710938 C 38.921875 128.796875 39.332031 128.757812 39.734375 128.589844 C 40.132812 128.425781 40.453125 128.164062 40.691406 127.804688 C 40.933594 127.445312 41.050781 127.050781 41.050781 126.617188 L 41.050781 103.109375 C 41.050781 102.828125 41 102.554688 40.890625 102.292969 C 40.78125 102.03125 40.625 101.800781 40.425781 101.597656 C 40.226562 101.398438 39.996094 101.242188 39.734375 101.136719 C 39.46875 101.027344 39.199219 100.972656 38.914062 100.972656 Z M 38.914062 100.972656 " fill-opacity="1" fill-rule="nonzero"/><path fill="#e7eaef" d="M 30.363281 75.328125 C 30.078125 75.328125 29.804688 75.273438 29.542969 75.164062 C 29.28125 75.058594 29.050781 74.902344 28.851562 74.703125 C 28.648438 74.503906 28.496094 74.269531 28.386719 74.007812 C 28.277344 73.746094 28.222656 73.476562 28.222656 73.191406 L 28.222656 54.097656 L 25.558594 53.015625 C 24.835938 52.730469 24.148438 52.382812 23.492188 51.972656 C 22.832031 51.558594 22.21875 51.09375 21.644531 50.570312 C 21.074219 50.046875 20.554688 49.476562 20.085938 48.859375 C 19.617188 48.242188 19.207031 47.589844 18.855469 46.898438 C 18.507812 46.207031 18.222656 45.488281 18.003906 44.746094 C 17.78125 44.003906 17.632812 43.246094 17.550781 42.476562 C 17.46875 41.707031 17.457031 40.933594 17.515625 40.160156 C 17.574219 39.390625 17.699219 38.628906 17.898438 37.878906 C 18.09375 37.128906 18.355469 36.402344 18.683594 35.703125 C 19.015625 35 19.402344 34.332031 19.851562 33.703125 C 20.300781 33.070312 20.804688 32.484375 21.363281 31.945312 C 21.917969 31.40625 22.519531 30.921875 23.164062 30.488281 C 23.808594 30.058594 24.484375 29.691406 25.195312 29.382812 C 25.90625 29.074219 26.640625 28.832031 27.394531 28.660156 C 28.152344 28.484375 28.917969 28.378906 29.691406 28.34375 C 30.464844 28.308594 31.238281 28.34375 32.003906 28.445312 L 34.871094 28.832031 L 36.296875 26.3125 C 36.851562 25.320312 37.527344 24.417969 38.324219 23.605469 C 39.121094 22.792969 40.011719 22.101562 40.992188 21.523438 C 41.972656 20.949219 43.015625 20.511719 44.113281 20.214844 C 45.210938 19.917969 46.328125 19.765625 47.464844 19.765625 C 48.605469 19.765625 49.722656 19.917969 50.820312 20.214844 C 51.917969 20.511719 52.960938 20.949219 53.941406 21.523438 C 54.921875 22.101562 55.8125 22.792969 56.609375 23.605469 C 57.40625 24.417969 58.082031 25.320312 58.636719 26.3125 L 60.0625 28.832031 L 62.929688 28.445312 C 63.378906 28.386719 63.832031 28.347656 64.289062 28.335938 C 64.742188 28.320312 65.195312 28.332031 65.652344 28.367188 C 66.105469 28.40625 66.554688 28.464844 67 28.546875 C 67.449219 28.632812 67.890625 28.738281 68.328125 28.871094 C 68.761719 29 69.1875 29.15625 69.609375 29.332031 C 70.027344 29.507812 70.4375 29.707031 70.835938 29.929688 C 71.230469 30.148438 71.617188 30.390625 71.988281 30.652344 C 72.363281 30.914062 72.71875 31.195312 73.058594 31.492188 C 73.402344 31.792969 73.726562 32.113281 74.035156 32.445312 C 74.34375 32.78125 74.632812 33.132812 74.902344 33.496094 C 75.171875 33.863281 75.425781 34.242188 75.652344 34.632812 C 75.882812 35.027344 76.09375 35.429688 76.277344 35.84375 C 76.464844 36.257812 76.628906 36.683594 76.769531 37.113281 C 76.910156 37.546875 77.03125 37.984375 77.125 38.429688 C 77.21875 38.875 77.289062 39.324219 77.335938 39.777344 C 77.382812 40.230469 77.402344 40.683594 77.402344 41.136719 C 77.402344 42.414062 77.214844 43.664062 76.84375 44.886719 C 76.46875 46.105469 75.925781 47.246094 75.210938 48.304688 C 74.496094 49.363281 73.640625 50.296875 72.648438 51.097656 C 71.652344 51.902344 70.5625 52.539062 69.375 53.015625 L 66.710938 54.097656 L 66.710938 73.191406 C 66.710938 73.476562 66.65625 73.746094 66.546875 74.007812 C 66.4375 74.269531 66.285156 74.503906 66.082031 74.703125 C 65.882812 74.902344 65.652344 75.058594 65.390625 75.164062 C 65.128906 75.273438 64.855469 75.328125 64.570312 75.328125 Z M 30.363281 75.328125 " fill-opacity="1" fill-rule="nonzero"/><path fill="#d8dbe0" d="M 81.675781 105.246094 L 15.394531 105.246094 C 15.109375 105.246094 14.839844 105.191406 14.578125 105.085938 C 14.3125 104.976562 14.082031 104.820312 13.882812 104.621094 C 13.683594 104.421875 13.527344 104.1875 13.417969 103.925781 C 13.3125 103.664062 13.257812 103.394531 13.257812 103.109375 C 13.257812 102.828125 13.3125 102.554688 13.417969 102.292969 C 13.527344 102.03125 13.683594 101.800781 13.882812 101.597656 C 14.082031 101.398438 14.3125 101.242188 14.578125 101.136719 C 14.839844 101.027344 15.109375 100.972656 15.394531 100.972656 L 81.675781 100.972656 C 81.960938 100.972656 82.234375 101.027344 82.496094 101.136719 C 82.757812 101.242188 82.988281 101.398438 83.1875 101.597656 C 83.390625 101.800781 83.542969 102.03125 83.652344 102.292969 C 83.761719 102.554688 83.816406 102.828125 83.816406 103.109375 C 83.816406 103.394531 83.761719 103.664062 83.652344 103.925781 C 83.542969 104.1875 83.390625 104.421875 83.1875 104.621094 C 82.988281 104.820312 82.757812 104.976562 82.496094 105.085938 C 82.234375 105.191406 81.960938 105.246094 81.675781 105.246094 Z M 81.675781 105.246094 " fill-opacity="1" fill-rule="nonzero"/><path fill="#d8dbe0" d="M 28.222656 66.78125 L 28.222656 73.191406 C 28.222656 73.476562 28.277344 73.746094 28.386719 74.007812 C 28.496094 74.269531 28.648438 74.503906 28.851562 74.703125 C 29.050781 74.902344 29.28125 75.058594 29.542969 75.164062 C 29.804688 75.273438 30.078125 75.328125 30.363281 75.328125 L 64.570312 75.328125 C 64.855469 75.328125 65.128906 75.273438 65.390625 75.164062 C 65.652344 75.058594 65.882812 74.902344 66.082031 74.703125 C 66.285156 74.503906 66.4375 74.269531 66.546875 74.007812 C 66.65625 73.746094 66.710938 73.476562 66.710938 73.191406 L 66.710938 66.78125 Z M 28.222656 66.78125 " fill-opacity="1" fill-rule="nonzero"/></svg>